<svg xmlns="http://www.w3.org/2000/svg" width="38" height="38" viewBox="0 0 45 45" fill="none">
    <path d="M22.5 45C34.9264 45 45 34.9264 45 22.5C45 10.0736 34.9264 0 22.5 0C10.0736 0 0 10.0736 0 22.5C0 34.9264 10.0736 45 22.5 45Z" fill="#181942"/>
    <path d="M15.3149 14.1181C14.6249 14.1685 14.4275 14.3971 12.2963 12.9803C10.6693 11.8987 12.2206 15.8325 12.0416 17.2031C11.8122 18.962 11.6895 20.6772 12.1879 22.1907C12.8862 24.3101 15.2325 25.5505 15.2325 25.5505C15.2325 25.5505 14.9056 24.3093 14.7686 22.068C14.6476 20.0847 14.9779 18.1695 15.1367 17.3762C15.4813 15.6493 16.3721 14.04 15.3149 14.1173V14.1181Z" fill="#4A2791"/>
    <path d="M19.5973 18.5709C19.3225 17.8162 19.415 17.1153 19.5116 16.7481C19.8688 15.3918 19.0057 15.4153 19.7889 15.0497C21.6411 14.185 24.4118 14.1245 26.0799 13.4228C26.4337 13.274 28.5237 12.358 29.5103 10.3269C30.5339 8.21837 30.2641 5.3418 30.2641 5.3418C30.2641 5.3418 31.1986 6.34856 31.3751 6.58218C32.4877 8.0545 32.3818 10.6428 32.1894 11.637C31.8264 13.5135 31.0456 14.6682 30.5465 15.3833C28.5279 18.2767 25.4177 18.8625 23.9824 19.3625C22.9151 19.7339 21.0486 20.3617 20.1721 19.5314C19.8385 19.2154 19.6343 18.6734 19.5965 18.57L19.5973 18.5709Z" fill="#4A2791"/>
    <path d="M19.1628 20.0796C19.0973 19.2795 19.3721 18.6283 19.562 18.2988C20.2654 17.0853 19.4267 16.8803 20.278 16.7341C22.2932 16.3895 24.9815 17.0643 26.7749 16.829C27.1556 16.7794 29.4128 16.4492 30.9019 14.7508C32.4465 12.9886 32.9474 10.1431 32.9474 10.1431C32.9474 10.1431 33.5819 11.3608 33.6911 11.633C34.3743 13.3474 33.5877 15.8155 33.1398 16.7231C32.2936 18.4367 31.2347 19.3434 30.5641 19.9014C27.8522 22.1578 24.6975 21.9006 23.1815 22.0032C22.0545 22.0796 20.0872 22.1906 19.4629 21.1586C19.225 20.7653 19.1712 20.1888 19.162 20.0796H19.1628Z" fill="#4A2791"/>
    <path d="M16.6209 17.8025C17.0075 17.0983 17.5949 16.7067 17.9361 16.5369C19.1916 15.9117 18.605 15.2789 19.3958 15.6268C21.2673 16.4504 23.138 18.495 24.7641 19.2875C25.1086 19.4555 27.1751 20.4245 29.3533 19.8278C31.6139 19.2085 33.5997 17.1109 33.5997 17.1109C33.5997 17.1109 33.4585 18.4773 33.3989 18.7639C33.0241 20.5707 30.9988 22.459 30.124 22.9691C28.4735 23.9322 28.0718 24.0532 26.7877 24.2717C23.3103 24.865 21.9892 23.6733 20.6673 22.9229C19.6849 22.3649 16.2293 20.074 16.2772 18.8681C16.2949 18.4084 16.568 17.8983 16.6209 17.8017V17.8025Z" fill="#4A2791"/>
    <path d="M19.8109 18.5706C19.8757 18.3597 20.2471 17.7059 21.027 17.5185C21.8572 17.3193 22.2362 17.2857 24.0834 17.3496C25.4028 17.3949 27.0793 16.984 28.1642 16.3848C28.6861 16.0966 29.7979 14.9579 29.9357 14.6738C29.9105 15.0083 29.6827 18.5933 28.3692 20.0471C27.2095 21.3312 24.8666 21.9153 23.8052 21.7716C22.8237 21.6388 21.9085 21.5623 20.8337 20.4749C20.6572 20.2967 19.379 19.9782 19.8101 18.5706H19.8109Z" fill="#8B6AD7"/>
    <path d="M20.0948 14.3169L21.589 15.4346L22.5478 16.1892L20.0629 15.7758L19.8738 14.79L20.0948 14.3169Z" fill="#F1EA67"/>
    <path d="M20.2555 15.7762C20.5228 15.6157 20.3984 14.7518 20.0732 14.0829C19.937 13.803 19.4681 12.8366 18.3143 12.4542C18.242 12.4307 16.9462 12.0231 15.8386 12.7669C15.2688 13.1492 15.0394 13.6509 14.6041 14.64C14.3074 15.3123 14.2528 15.6266 13.6343 17.9696C13.2359 19.4806 13.2208 19.4948 13.2149 19.6949C13.2107 19.8444 13.1855 21.7185 14.5906 23.0177C14.8318 23.2404 15.0301 23.3681 15.3058 23.5429C16.6529 24.3984 17.8252 24.5824 19.8916 25.0715C21.5926 25.4741 22.4497 25.68 22.78 25.8993C24.0725 26.7573 24.5717 28.2876 24.791 29.4557C25.0112 28.9759 25.2843 28.2212 25.2986 27.2876C25.3238 25.6421 24.5313 24.4177 23.4019 22.7235C21.5673 19.9705 20.5639 18.8368 20.5639 18.8368C20.5639 18.8368 19.2387 17.3393 19.3874 16.3435C19.4042 16.23 19.4505 15.925 19.6681 15.8048C19.895 15.6804 20.1009 15.8687 20.2555 15.7762Z" fill="#B7A0EC"/>
    <path d="M12.809 13.4572C12.5334 12.9698 11.6762 12.0807 11.1333 12.1841C10.0333 12.3933 9.80888 15.6287 9.71392 17.0078C9.59123 18.7776 9.41811 20.5298 10.0072 22.0113C10.8324 24.0845 13.4292 25.7375 13.4292 25.7375C13.4292 25.7375 12.6745 23.6517 12.4023 21.4231C12.1611 19.4507 12.6308 17.238 12.7409 16.4363C12.9804 14.6917 13.3309 14.3808 12.809 13.4581V13.4572Z" fill="#4A2791"/>
    <path d="M19.3939 14.4575C19.3477 14.3037 19.2578 14.2298 19.1561 14.1634C18.9485 14.0273 18.6326 14.0063 18.4174 14.1701C18.367 14.2079 18.2065 14.329 18.225 14.5206C18.2334 14.6054 18.2863 14.6743 18.2863 14.6743C18.2863 14.6743 18.4931 14.4659 18.82 14.4416C19.1334 14.418 19.4057 14.6029 19.4057 14.6029C19.4057 14.6029 19.436 14.5937 19.3948 14.4584L19.3939 14.4575Z" fill="#4A2791"/>
    <path d="M8.92395 26.2372C8.92395 23.6237 10.924 21.7715 13.6477 21.7715C15.2301 21.7715 16.5066 22.348 17.3402 23.3909L15.794 24.7892C15.2544 24.1388 14.5914 23.7833 13.7695 23.7833C12.3585 23.7833 11.377 24.7649 11.377 26.2372C11.377 27.7095 12.3585 28.6911 13.7695 28.6911C14.5914 28.6911 15.2544 28.3356 15.794 27.6852L17.3402 29.0835C16.5057 30.1264 15.2301 30.7029 13.6477 30.7029C10.924 30.7029 8.92395 28.8507 8.92395 26.2372Z" fill="#F1EA67"/>
    <path d="M26.5917 21.9429V30.5314H24.5916L20.8007 25.9548V30.5314H18.4208V21.9429H20.4209L24.2117 26.5195V21.9429H26.5917Z" fill="#F1EA67"/>
    <path d="M36.051 25.1213C36.051 27.0718 34.5787 28.2869 32.2358 28.2869H30.7391V30.5324H28.3096V21.9438H32.2358C34.5787 21.9438 36.051 23.1582 36.051 25.1213ZM33.598 25.1213C33.598 24.3238 33.0946 23.8574 32.0887 23.8574H30.7391V26.3726H32.0887C33.0946 26.3726 33.598 25.9062 33.598 25.1213Z" fill="#F1EA67"/>
    <path d="M12.0727 35.5744V35.7896H10.4088V33.4365H12.0223V33.6517H10.6576V34.4887H11.8744V34.7004H10.6576V35.5744H12.0727Z" fill="white"/>
    <path d="M15.4207 33.437L14.3786 35.79H14.1332L13.0912 33.437H13.3601L14.261 35.4808L15.1686 33.437H15.4207Z" fill="white"/>
    <path d="M18.0057 35.161H16.6948L16.4124 35.7896H16.1536L17.2292 33.4365H17.4746L18.5503 35.7896H18.2881L18.0057 35.161ZM17.915 34.9593L17.3502 33.6954L16.7855 34.9593H17.915Z" fill="white"/>
    <path d="M21.7469 33.437V35.79H21.5418L20.0291 33.8807V35.79H19.7804V33.437H19.9854L21.5015 35.3463V33.437H21.7469Z" fill="white"/>
    <path d="M23.1285 35.504L23.226 35.3124C23.3941 35.4771 23.6933 35.5981 24.0025 35.5981C24.4429 35.5981 24.6345 35.4132 24.6345 35.1813C24.6345 34.5359 23.1857 34.9325 23.1857 34.0619C23.1857 33.7157 23.4546 33.4165 24.0529 33.4165C24.3185 33.4165 24.5941 33.4938 24.7824 33.6249L24.6983 33.8232C24.4967 33.6921 24.2614 33.6283 24.0529 33.6283C23.6227 33.6283 23.4311 33.8199 23.4311 34.0552C23.4311 34.7006 24.8799 34.3107 24.8799 35.1678C24.8799 35.5141 24.6042 35.8099 24.0025 35.8099C23.6496 35.8099 23.3033 35.6855 23.1285 35.504Z" fill="white"/>
    <path d="M26.685 33.6517H25.858V33.4365H27.7606V33.6517H26.9337V35.7896H26.685V33.6517Z" fill="white"/>
    <path d="M28.7557 34.6132C28.7557 33.9274 29.2801 33.4165 29.9928 33.4165C30.7054 33.4165 31.2264 33.9241 31.2264 34.6132C31.2264 35.3023 30.6987 35.8099 29.9928 35.8099C29.2868 35.8099 28.7557 35.2989 28.7557 34.6132ZM30.9777 34.6132C30.9777 34.0518 30.5575 33.6384 29.9928 33.6384C29.428 33.6384 29.0011 34.0518 29.0011 34.6132C29.0011 35.1746 29.4247 35.588 29.9928 35.588C30.5608 35.588 30.9777 35.1746 30.9777 34.6132Z" fill="white"/>
    <path d="M34.5911 33.437V35.79H34.386L32.8734 33.8807V35.79H32.6246V33.437H32.8297L34.3457 35.3463V33.437H34.5911Z" fill="white"/>
</svg>